<?xml version="1.0" encoding="UTF-8" standalone="no"?>
<!-- Created with Inkscape (http://www.inkscape.org/) -->

<svg
   version="1.1"
   id="svg3227"
   width="600"
   height="250"
   viewBox="0 0 600 250"
   sodipodi:docname="mundobase.svg"
   inkscape:version="1.2.2 (732a01da63, 2022-12-09)"
   xmlns:inkscape="http://www.inkscape.org/namespaces/inkscape"
   xmlns:sodipodi="http://sodipodi.sourceforge.net/DTD/sodipodi-0.dtd"
   xmlns="http://www.w3.org/2000/svg"
   xmlns:svg="http://www.w3.org/2000/svg">
  <defs
     id="defs3231" />
  <sodipodi:namedview
     id="namedview3229"
     pagecolor="#ffffff"
     bordercolor="#666666"
     borderopacity="1.0"
     inkscape:showpageshadow="2"
     inkscape:pageopacity="0.0"
     inkscape:pagecheckerboard="0"
     inkscape:deskcolor="#d1d1d1"
     showgrid="false"
     inkscape:zoom="2.5160895"
     inkscape:cx="298.87649"
     inkscape:cy="211.04178"
     inkscape:window-width="1366"
     inkscape:window-height="705"
     inkscape:window-x="-8"
     inkscape:window-y="-8"
     inkscape:window-maximized="1"
     inkscape:current-layer="g3233" />
  <g
     inkscape:groupmode="layer"
     inkscape:label="Image"
     id="g3233">
    <rect
       style="opacity:0.99;fill:#d0b400;fill-opacity:1;stroke-width:3.99546"
       id="rect3810"
       width="626.57526"
       height="294.73767"
       x="2.0611076"
       y="-2.0610912"
       ry="1.6390311" />
    <path
       style="fill:#fffdf2;fill-opacity:1;stroke:#000000;stroke-width:1px;stroke-linecap:butt;stroke-linejoin:miter;stroke-opacity:1"
       d="m 313.07979,213.05118 c -31.77895,-0.23247 -63.6505,2.11518 -95.10917,6.62153 -49.34926,7.06912 -61.39959,26.48609 -61.39959,26.48609 l 158.91659,2.40783 156.50876,-0.60195 c 0,0 -8.02554,-18.68136 -58.99176,-26.4861 -33.04135,-5.0598 -66.4992,-8.18288 -99.92483,-8.4274 z"
       id="path4179"
       sodipodi:nodetypes="sscccss" />
    <path
       style="fill:#e4dec0;fill-opacity:1;stroke:#000000;stroke-width:1px;stroke-linecap:butt;stroke-linejoin:miter;stroke-opacity:1"
       d="m 283.95131,216.86301 1.28917,26.64487 -104.91356,-1.58148 c 0,0 7.64306,-8.8393 33.97777,-17.10511 24.37767,-7.65155 69.64662,-7.95828 69.64662,-7.95828 z"
       id="path4277"
       sodipodi:nodetypes="cccsc" />
    <path
       style="fill:#e4dec0;fill-opacity:1;stroke:#000000;stroke-width:1px;stroke-linecap:butt;stroke-linejoin:miter;stroke-opacity:1"
       d="m 288.18901,216.53103 1.19233,27.02607 174.4771,0.39744 c 0,0 -6.25399,-9.13576 -37.757,-17.48745 -17.83511,-4.72822 -30.59973,-6.08726 -46.10329,-7.5514 -30.47776,-2.87829 -91.80914,-2.38466 -91.80914,-2.38466 z"
       id="path4279"
       sodipodi:nodetypes="cccssc" />
    <path
       style="opacity:0.99;fill:#ffffff;fill-opacity:1;stroke:#000000;stroke-width:0.922205;stroke-dasharray:none;stroke-opacity:1"
       id="path4335"
       sodipodi:type="arc"
       sodipodi:cx="313.03296"
       sodipodi:cy="-213.01085"
       sodipodi:rx="25.833738"
       sodipodi:ry="11.3271"
       sodipodi:start="0"
       sodipodi:end="3.0925616"
       sodipodi:arc-type="slice"
       d="m 338.8667,-213.01085 a 25.833738,11.3271 0 0 1 -25.20048,11.3237 25.833738,11.3271 0 0 1 -26.43595,-10.76854 l 25.80269,-0.55516 z"
       transform="scale(1,-1)" />
    <path
       style="opacity:0.99;fill:#ffffff;fill-opacity:1;stroke:#000000;stroke-width:0.45;stroke-dasharray:none;stroke-opacity:1"
       id="path4391"
       sodipodi:type="arc"
       sodipodi:cx="332.75198"
       sodipodi:cy="238.69273"
       sodipodi:rx="7.034183"
       sodipodi:ry="3.1981323"
       sodipodi:start="3.6706028"
       sodipodi:end="3.6244458"
       sodipodi:arc-type="arc"
       d="m 326.67932,237.0787 a 7.034183,3.1981323 0 0 1 9.55236,-1.16538 7.034183,3.1981323 0 0 1 2.67327,4.3293 7.034183,3.1981323 0 0 1 -9.49066,1.26529 7.034183,3.1981323 0 0 1 -2.8923,-4.30009"
       sodipodi:open="true" />
    <path
       style="opacity:0.99;fill:#ffffff;fill-opacity:1;stroke:#000000;stroke-width:0.45;stroke-dasharray:none;stroke-opacity:1"
       id="path1"
       sodipodi:type="arc"
       sodipodi:cx="355.91693"
       sodipodi:cy="238.04926"
       sodipodi:rx="7.034183"
       sodipodi:ry="3.1981323"
       sodipodi:start="3.6706028"
       sodipodi:end="3.6244458"
       sodipodi:arc-type="arc"
       d="m 349.84427,236.43523 a 7.034183,3.1981323 0 0 1 9.55236,-1.16539 7.034183,3.1981323 0 0 1 2.67327,4.3293 7.034183,3.1981323 0 0 1 -9.49067,1.26529 7.034183,3.1981323 0 0 1 -2.89229,-4.30009"
       sodipodi:open="true" />
    <path
       style="fill:#381c11;fill-opacity:1;stroke:#000000;stroke-width:0.231245;stroke-dasharray:none;stroke-opacity:1"
       id="path2"
       sodipodi:type="arc"
       sodipodi:cx="386.72604"
       sodipodi:cy="233.58008"
       sodipodi:rx="12.980215"
       sodipodi:ry="7.8339319"
       sodipodi:start="3.6706028"
       sodipodi:end="3.6244458"
       sodipodi:open="true"
       sodipodi:arc-type="arc"
       d="m 375.52013,229.62646 a 12.980215,7.8339319 0 0 1 17.62702,-2.85464 12.980215,7.8339319 0 0 1 4.93299,10.60476 12.980215,7.8339319 0 0 1 -17.51317,3.09937 12.980215,7.8339319 0 0 1 -5.33716,-10.53323" />
    <path
       style="fill:#381c11;fill-opacity:1;stroke:#000000;stroke-width:0.231245;stroke-dasharray:none;stroke-opacity:1"
       id="path3"
       sodipodi:type="arc"
       sodipodi:cx="415.68225"
       sodipodi:cy="233.58008"
       sodipodi:rx="12.980215"
       sodipodi:ry="7.8339319"
       sodipodi:start="3.6706028"
       sodipodi:end="3.6244458"
       sodipodi:open="true"
       sodipodi:arc-type="arc"
       d="m 404.47634,229.62646 a 12.980215,7.8339319 0 0 1 17.62701,-2.85464 12.980215,7.8339319 0 0 1 4.933,10.60476 12.980215,7.8339319 0 0 1 -17.51317,3.09937 12.980215,7.8339319 0 0 1 -5.33717,-10.53323" />
    <path
       style="fill:#ffffff;fill-opacity:1;stroke:#000000;stroke-width:0.191741;stroke-dasharray:none;stroke-opacity:1"
       id="path5"
       sodipodi:type="arc"
       sodipodi:cx="-426.03629"
       sodipodi:cy="-212.53249"
       sodipodi:rx="10.592575"
       sodipodi:ry="6.6000128"
       sodipodi:start="3.6706028"
       sodipodi:end="0.55783062"
       sodipodi:arc-type="slice"
       d="m -435.18093,-215.86337 a 10.592575,6.6000128 0 0 1 9.30372,-3.26838 10.592575,6.6000128 0 0 1 9.14199,3.441 10.592575,6.6000128 0 0 1 -0.31427,6.65196 l -8.9868,-3.4937 z"
       transform="rotate(-177.01615)" />
    <path
       style="fill:#ffffff;fill-opacity:1;stroke:#000000;stroke-width:0.191741;stroke-dasharray:none;stroke-opacity:1"
       id="path6"
       sodipodi:type="arc"
       sodipodi:cx="400.65851"
       sodipodi:cy="209.96051"
       sodipodi:rx="10.592575"
       sodipodi:ry="6.6000128"
       sodipodi:start="3.6706028"
       sodipodi:end="0.55783062"
       sodipodi:arc-type="slice"
       d="m 391.51386,206.62962 a 10.592575,6.6000128 0 0 1 9.30372,-3.26838 10.592575,6.6000128 0 0 1 9.14199,3.441 10.592575,6.6000128 0 0 1 -0.31426,6.65197 l -8.9868,-3.4937 z"
       transform="rotate(3.3370742)" />
    <path
       style="fill:#ffffff;fill-opacity:1;stroke:#000000;stroke-width:0.191741;stroke-dasharray:none;stroke-opacity:1"
       id="path7"
       sodipodi:type="arc"
       sodipodi:cx="-409.4812"
       sodipodi:cy="-189.56425"
       sodipodi:rx="10.592575"
       sodipodi:ry="6.6000128"
       sodipodi:start="3.6706028"
       sodipodi:end="0.55783062"
       sodipodi:arc-type="slice"
       d="m -418.62585,-192.89514 a 10.592575,6.6000128 0 0 1 9.30372,-3.26838 10.592575,6.6000128 0 0 1 9.14199,3.441 10.592575,6.6000128 0 0 1 -0.31426,6.65196 l -8.9868,-3.49369 z"
       transform="rotate(-173.53411)" />
    <path
       style="fill:#ffffff;fill-opacity:1;stroke:#000000;stroke-width:0.191741;stroke-dasharray:none;stroke-opacity:1"
       id="path8"
       sodipodi:type="arc"
       sodipodi:cx="416.80228"
       sodipodi:cy="232.96945"
       sodipodi:rx="10.592575"
       sodipodi:ry="6.6000128"
       sodipodi:start="3.6706028"
       sodipodi:end="0.55783062"
       sodipodi:arc-type="slice"
       d="m 407.65763,229.63856 a 10.592575,6.6000128 0 0 1 9.30372,-3.26838 10.592575,6.6000128 0 0 1 9.14199,3.441 10.592575,6.6000128 0 0 1 -0.31426,6.65197 l -8.9868,-3.4937 z" />
    <path
       style="fill:#ffffff;fill-opacity:1;stroke:#000000;stroke-width:0.45;stroke-dasharray:none;stroke-opacity:1"
       d="m 306.76304,201.62615 c 0,0 -1.14015,-5.70512 0.45514,-7.73734 1.27416,-1.62314 3.85501,-1.90515 5.91679,-1.82056 1.63263,0.067 3.52079,0.55256 4.55139,1.82056 1.65183,2.03234 1.36541,7.73734 1.36541,7.73734 0,0 -3.63486,-0.43999 -5.46166,-0.45513 -2.28066,-0.0189 -6.82707,0.45513 -6.82707,0.45513 z"
       id="path9"
       sodipodi:nodetypes="cssscsc" />
    <path
       style="fill:#ffffff;fill-opacity:1;stroke:#000000;stroke-width:0.529928;stroke-dasharray:none;stroke-opacity:1"
       d="m 137.10562,119.50032 c 0,0 -7.97563,1.08955 -10.79537,-0.51063 -2.25213,-1.27808 -2.61837,-3.84414 -2.47839,-5.89175 0.11083,-1.62143 0.80868,-3.49353 2.58956,-4.50779 2.8544,-1.62563 10.81471,-1.29798 10.81471,-1.29798 0,0 -0.65277,3.6077 -0.6933,5.42241 -0.0505,2.26556 0.56279,6.78574 0.56279,6.78574 z"
       id="path12"
       sodipodi:nodetypes="cssscsc" />
    <path
       style="fill:#ffffff;fill-opacity:1;stroke:#000000;stroke-width:0.45;stroke-dasharray:none;stroke-opacity:1"
       d="m 127.63848,118.38225 c 0,0 -5.59456,16.19773 -4.38453,24.35849 1.20369,8.11796 5.77467,15.76936 11.2049,21.92264 6.49697,7.36206 15.66399,12.00129 24.35849,16.56377 9.55988,5.0166 19.85757,8.61019 30.20453,11.69207 7.47848,2.22749 20.94829,4.8717 22.89697,4.8717 1.94868,0 25.23357,5.19426 37.99924,6.82038 12.76263,1.62573 38.48642,2.92302 38.48642,2.92302 l 9.25622,-4.38453 c 0,0 -34.53795,-1.55072 -51.63999,-3.89736 -14.76617,-2.02612 -29.47271,-4.82264 -43.84528,-8.76906 -11.78728,-3.23655 -23.75029,-6.52801 -34.58905,-12.17924 -6.91316,-3.60446 -13.20771,-8.42177 -18.99962,-13.64075 -5.81073,-5.23594 -12.72081,-10.2614 -15.58944,-17.53811 -2.44255,-6.1959 -1.93817,-13.47398 -0.48717,-19.97396 0.63289,-2.83514 3.89736,-7.79472 3.89736,-7.79472 z"
       id="path10"
       sodipodi:nodetypes="cssssssccsssssscc" />
    <path
       style="fill:#ffffff;fill-opacity:1;stroke:#000000;stroke-width:0.529928;stroke-dasharray:none;stroke-opacity:1"
       d="m 485.80601,119.81554 c 0,0 8.04959,0.0435 10.63738,-1.90966 2.06688,-1.56 2.09643,-4.15189 1.69146,-6.16393 -0.32067,-1.59327 -1.25596,-3.35876 -3.15358,-4.13291 -3.04151,-1.24077 -10.89168,0.1189 -10.89168,0.1189 0,0 1.11622,3.49223 1.39231,5.28628 0.34459,2.23977 0.32411,6.80132 0.32411,6.80132 z"
       id="path13"
       sodipodi:nodetypes="cssscsc" />
    <path
       style="fill:#ffffff;fill-opacity:1;stroke:#000000;stroke-width:0.445596;stroke-dasharray:none;stroke-opacity:1"
       d="m 494.75446,118.38034 c 0,0 5.48536,16.19843 4.29895,24.35954 -1.1802,8.1183 -5.66195,15.77003 -10.98619,21.92357 -6.37015,7.36238 -15.35823,12.00181 -23.88302,16.56448 -9.37328,5.01682 -19.46996,8.61056 -29.61495,11.69257 -7.33251,2.22759 -20.53939,4.87191 -22.45003,4.87191 -1.91065,0 -24.74103,5.19448 -37.25752,6.82067 -12.51351,1.6258 -37.73518,2.92315 -37.73518,2.92315 l -9.07554,-4.38472 c 0,0 33.86378,-1.55079 50.632,-3.89753 14.47794,-2.0262 28.89742,-4.82284 42.98944,-8.76943 11.5572,-3.23669 23.28669,-6.52829 33.91389,-12.17976 6.77822,-3.60462 12.9499,-8.42213 18.62875,-13.64134 5.69731,-5.23616 12.47251,-10.26184 15.28515,-17.53886 2.39487,-6.19616 1.90033,-13.47455 0.47766,-19.97481 -0.62054,-2.83526 -3.82129,-7.79505 -3.82129,-7.79505 z"
       id="path11"
       sodipodi:nodetypes="cssssssccsssssscc" />
    <path
       style="fill:#3a1e12;fill-opacity:1;stroke:#000000;stroke-width:0.733185;stroke-dasharray:none;stroke-opacity:1"
       d="m 470.3033,123.48294 c 0,0 10.07358,1.14607 13.42684,-1.48143 2.67826,-2.09858 2.86649,-6.04203 2.47698,-9.16067 -0.30846,-2.4695 -1.37616,-5.28378 -3.70635,-6.71733 -3.73482,-2.29771 -13.64064,-1.27997 -13.64064,-1.27997 0,0 1.19342,5.46832 1.43435,8.23763 0.30076,3.45735 0.009,10.40177 0.009,10.40177 z"
       id="path15"
       sodipodi:nodetypes="cssscsc" />
    <path
       style="fill:#3a1e12;fill-opacity:1;stroke:#000000;stroke-width:0.701371;stroke-dasharray:none;stroke-opacity:1"
       d="m 150.34546,124.46759 c 0,0 -8.97355,1.17733 -11.96064,-1.52184 -2.3858,-2.15583 -2.55347,-6.20685 -2.2065,-9.41056 0.27478,-2.53686 1.22589,-5.42791 3.30162,-6.90057 3.32698,-2.36038 12.1511,-1.31488 12.1511,-1.31488 0,0 -1.0631,5.61749 -1.27772,8.46234 -0.26792,3.55166 -0.008,10.68551 -0.008,10.68551 z"
       id="path14"
       sodipodi:nodetypes="cssscsc" />
    <path
       style="display:inline;fill:#3a1e12;fill-opacity:1;stroke:#000000;stroke-width:0.449179;stroke-dasharray:none;stroke-opacity:1"
       d="m 161.25281,83.229802 c 0,0 -9.90566,20.801788 -11.20494,32.035928 -2.88849,24.97542 2.26894,27.14529 7.79474,39.31683 3.62765,7.99052 8.87819,15.82491 16.07664,20.8719 10.87785,7.62667 25.0606,9.06236 37.99934,12.13483 14.07581,3.34249 42.87105,6.79549 42.87105,6.79549 l 50.17861,0.97079 c 0,0 51.73786,0.38644 77.46019,-1.94157 14.57046,-1.3187 29.16337,-3.2649 43.35821,-6.7955 8.66984,-2.15638 17.90123,-3.79326 25.33289,-8.73707 4.8788,-3.24556 8.77577,-8.03413 11.69211,-13.10561 6.53559,-11.36534 13.49713,-13.62417 12.17927,-37.37526 C 474.1288,111.86309 466.72874,95.466202 455.01691,85.171373 442.84806,74.474818 424.59647,73.542709 408.73567,70.124192 390.05126,66.097093 370.81584,65.005151 351.73666,63.814084 329.3683,62.417681 306.91129,62.246802 284.50707,62.843297 c -23.91801,0.636799 -47.90842,1.622482 -71.61414,4.85393 -9.52934,1.298993 -28.25591,5.824716 -28.25591,5.824716 z"
       id="path16"
       sodipodi:nodetypes="cssssccsssssssssscc"
       sodipodi:insensitive="true" />
    <path
       style="opacity:0.99;fill:#3a1e12;fill-opacity:1;stroke:none;stroke-width:0.997441;stroke-dasharray:none;stroke-opacity:1"
       id="path21"
       sodipodi:type="arc"
       sodipodi:cx="311.56882"
       sodipodi:cy="-63.449734"
       sodipodi:rx="30.220903"
       sodipodi:ry="11.3271"
       sodipodi:start="0"
       sodipodi:end="3.0925616"
       sodipodi:arc-type="slice"
       d="m 341.78972,-63.449734 a 30.220903,11.3271 0 0 1 -29.4801,11.323696 30.220903,11.3271 0 0 1 -30.92539,-10.768539 l 30.18459,-0.555157 z"
       transform="scale(1,-1)" />
    <path
       style="display:inline;fill:#ffffff;fill-opacity:1;stroke:#000000;stroke-width:0.429009;stroke-dasharray:none;stroke-opacity:1"
       d="m 160.75634,81.887374 c 0,0 -9.90628,18.974356 -11.20563,29.221586 -2.88868,22.78133 2.26908,24.76057 7.79522,35.86285 3.62787,7.28856 8.87873,14.4347 16.07763,19.03831 10.87852,6.95667 25.06214,8.26623 38.00168,11.06878 14.07668,3.04886 42.87369,6.19852 42.87369,6.19852 l 50.18171,0.8855 c 0,0 51.74105,0.35249 77.46496,-1.77101 14.57136,-1.20285 29.16517,-2.97807 43.36089,-6.19851 8.67036,-1.96695 17.90232,-3.46003 25.33444,-7.96953 4.8791,-2.96043 8.77631,-7.32833 11.69283,-11.95428 6.536,-10.36689 13.49797,-12.42728 12.18002,-34.09184 -0.86217,-14.17252 -8.26269,-29.12894 -19.97524,-38.51937 -12.1696,-9.756866 -30.42231,-10.607089 -46.28409,-13.72529 -18.68557,-3.67332 -37.92217,-4.669335 -57.00252,-5.755767 -22.36974,-1.273729 -44.82814,-1.429596 -67.23374,-0.885503 -23.91948,0.580857 -47.91137,1.479947 -71.61855,4.427513 -9.52993,1.184877 -28.25765,5.313016 -28.25765,5.313016 z"
       id="path17"
       sodipodi:nodetypes="cssssccsssssssssscc"
       sodipodi:insensitive="true" />
    <path
       style="fill:none;fill-opacity:1;stroke:#000000;stroke-width:1.34024;stroke-dasharray:none;stroke-opacity:1"
       d="m 194.65902,85.738031 c -8.50196,7.267806 -11.42937,20.008769 -12.96273,31.182059 -1.4457,10.53441 -1.72173,22.65486 3.84081,31.66929 5.15952,8.3613 24.48516,16.07825 24.48516,16.07825 0,0 28.7531,3.841 43.20911,4.87219 16.13073,1.15066 48.49022,1.46166 48.49022,1.46166 h 58.57235 l 46.08972,-4.87219 c 0,0 18.6242,-2.87781 25.44536,-8.76996 6.75993,-5.83925 10.52638,-15.08643 12.48264,-23.87377 1.62379,-7.29393 -0.96021,-22.41211 -0.96021,-22.41211 0,0 -3.40258,-14.485615 -8.64182,-19.001568 -11.89616,-10.253853 -29.74109,-10.020209 -45.12952,-12.667711 -19.13335,-3.291798 -58.09225,-3.89776 -58.09225,-3.89776 0,0 -45.79414,0.282019 -68.65447,1.46166 -15.87448,0.819154 -31.82452,1.414445 -47.53002,3.89776 -6.98086,1.103793 -15.24084,0.253056 -20.64435,4.8722 z"
       id="path18"
       sodipodi:nodetypes="ssscscccsscsscsss" />
    <path
       style="fill:#361b10;fill-opacity:1;stroke:none;stroke-width:0.75;stroke-dasharray:none;stroke-opacity:1"
       d="m 309.40412,78.92149 c -49.54713,-0.81496 -86.95615,-4.00891 -107.17735,8.28189 -9.45758,5.74848 -11.78178,19.65954 -12.66641,30.69169 -2.42769,30.27548 -0.76131,31.69423 10.23056,39.94792 13.21337,9.92181 64.79358,10.71774 64.79358,10.71774 l 43.84528,0.48717 c 0,0 46.92957,2.25934 70.15244,-0.48717 14.23897,-1.684 30.02176,-1.70768 41.8966,-9.7434 8.69312,-5.88264 16.09179,-15.50314 18.02528,-25.82 2.40141,-12.8137 -0.21495,-28.60705 -9.25622,-37.99923 C 417.3053,82.59201 396.57723,83.48418 379.55656,80.87017 356.43448,77.31913 336.65135,79.36966 309.40412,78.92149 Z"
       id="path20"
       sodipodi:nodetypes="ssssccssssss" />
    <path
       style="display:inline;fill:#00dddd;fill-opacity:1;stroke:none;stroke-width:0.681387;stroke-dasharray:none;stroke-opacity:1"
       d="m 308.72937,83.232805 c -46.85187,-0.711366 -82.22592,-3.499317 -101.34713,7.229136 -8.9431,5.01776 -11.14088,17.160509 -11.97739,26.790309 -2.29562,26.427 -0.71989,27.66541 9.67405,34.86993 12.49459,8.6606 61.26895,9.35536 61.26895,9.35536 l 41.46019,0.42523 c 0,0 44.3767,1.97215 66.3363,-0.42523 13.4644,-1.46994 28.38864,-1.49061 39.61751,-8.50487 8.22023,-5.13487 15.21644,-13.53246 17.04475,-22.53789 2.27077,-11.18488 -0.20326,-24.97066 -8.75271,-33.168947 -11.29293,-10.829087 -30.89343,-10.050325 -46.98822,-12.332055 -21.86428,-3.099649 -40.57125,-1.309772 -66.3363,-1.700973 z"
       id="path19"
       sodipodi:nodetypes="ssssccssssss" />
    <path
       style="fill:#ffffff;fill-opacity:1;stroke:#000000;stroke-width:0.75;stroke-dasharray:none;stroke-opacity:1"
       d="m 245.53356,25.819997 43.35811,30.204525 5.84603,-2.923019 -44.81962,-30.691694 z"
       id="path22" />
    <path
       style="fill:#ffffff;fill-opacity:1;stroke:#000000;stroke-width:0.75;stroke-dasharray:none;stroke-opacity:1"
       d="m 375.71318,25.819997 -43.35811,30.204525 -5.84603,-2.923019 44.81962,-30.691694 z"
       id="path23" />
    <path
       style="fill:#ffffff;fill-opacity:1;stroke:#000000;stroke-width:0.592807;stroke-dasharray:none;stroke-opacity:1"
       id="path24"
       sodipodi:type="arc"
       sodipodi:cx="243.82837"
       sodipodi:cy="21.679033"
       sodipodi:rx="6.6541719"
       sodipodi:ry="5.6821203"
       sodipodi:start="3.6706028"
       sodipodi:end="3.6244458"
       sodipodi:open="true"
       sodipodi:arc-type="arc"
       d="m 238.08378,18.811386 a 6.6541719,5.6821203 0 0 1 9.0363,-2.07053 6.6541719,5.6821203 0 0 1 2.52885,7.691861 6.6541719,5.6821203 0 0 1 -8.97794,2.248043 6.6541719,5.6821203 0 0 1 -2.73605,-7.639981" />
    <path
       style="fill:#ffffff;fill-opacity:1;stroke:#000000;stroke-width:0.592807;stroke-dasharray:none;stroke-opacity:1"
       id="path25"
       sodipodi:type="arc"
       sodipodi:cx="371.46686"
       sodipodi:cy="24.114882"
       sodipodi:rx="6.6541719"
       sodipodi:ry="5.6821203"
       sodipodi:start="3.6706028"
       sodipodi:end="3.6244458"
       sodipodi:open="true"
       sodipodi:arc-type="arc"
       d="m 365.72226,21.247234 a 6.6541719,5.6821203 0 0 1 9.03631,-2.07053 6.6541719,5.6821203 0 0 1 2.52885,7.691861 6.6541719,5.6821203 0 0 1 -8.97795,2.248044 6.6541719,5.6821203 0 0 1 -2.73604,-7.639982" />
    <path
       style="fill:#73f700;fill-opacity:1;stroke:#000000;stroke-width:0.35;stroke-dasharray:none;stroke-opacity:1"
       d="m 218.25205,94.998102 -10.71773,14.615098 13.64075,-1.46151 2.43585,8.76905 13.15358,5.35887 c 0,0 4.38453,8.76905 6.82038,8.76905 2.43585,0 12.66641,-0.97434 12.66641,-0.97434 l -0.48717,14.6151 -5.84604,13.15358 7.79472,2.92302 20.46113,-1.46151 -5.35887,-16.56377 11.69208,-17.53811 -14.12793,-3.89736 -18.51245,-4.8717 6.82038,-10.71773 12.66641,-10.717738 7.79472,-6.333206 -23.87132,-0.97434 -25.33283,2.923019 z"
       id="path26" />
    <path
       style="fill:#73f700;fill-opacity:1;stroke:#000000;stroke-width:0.35;stroke-dasharray:none;stroke-opacity:1"
       d="m 339.55732,88.177726 3.41019,11.204904 -23.87132,4.8717 2.43585,8.28188 14.12792,-3.89735 0.48717,9.74339 c 0,0 -10.23056,7.79472 -11.2049,12.66641 -0.97434,4.8717 11.69207,22.40981 11.69207,22.40981 l 8.76906,6.82038 26.30716,-9.25623 -7.30754,-16.0766 -2.43585,-13.64075 16.56377,-2.92302 8.76906,7.79472 14.12792,-7.79472 c 0,0 4.8717,-11.69207 5.84604,-2.92302 0.97434,8.76906 0,13.64076 0.48717,16.0766 0.48717,2.43585 5.84603,8.28189 5.84603,8.28189 l 10.71774,-13.15358 v -14.12793 l -6.82038,-14.615089 c 0,0 -21.43547,-7.307546 -24.84566,-7.307546 -3.41019,0 -20.9483,-2.435849 -29.23018,-2.435849 -8.28189,0 -23.87132,0 -23.87132,0 z"
       id="path27" />
    <path
       sodipodi:type="spiral"
       style="fill:none;fill-rule:evenodd;stroke:#000000"
       id="path28"
       sodipodi:cx="88.753433"
       sodipodi:cy="56.263336"
       sodipodi:expansion="1"
       sodipodi:revolution="3"
       sodipodi:radius="19.683836"
       sodipodi:argument="-17.978653"
       sodipodi:t0="0"
       d="m 88.753433,56.263336 c 0.635709,0.754903 -0.703958,1.229365 -1.254698,1.056589 -1.492472,-0.468211 -1.570016,-2.437933 -0.85848,-3.565986 1.272771,-2.017822 4.129126,-2.022161 5.877273,-0.66037 2.565477,1.998482 2.489968,5.844078 0.462262,8.188561 -2.702613,3.124827 -7.567571,2.964582 -10.499849,0.264152 -3.689971,-3.398215 -3.442746,-9.295161 -0.06604,-12.811136 4.08964,-4.258316 11.025065,-3.922971 15.122424,0.132066 4.828598,4.778721 4.404488,12.75641 -0.330176,17.433711 -5.466358,5.40013 -14.488718,4.886872 -19.744998,-0.528285 -5.97252,-6.153044 -5.369858,-16.221702 0.726394,-22.056285 6.839073,-6.545521 17.95518,-5.853283 24.367578,0.924503 7.11897,7.524626 6.33703,19.689029 -1.12262,26.678861"
       transform="translate(62.602868,2.3773241)" />
    <path
       sodipodi:type="spiral"
       style="fill:none;fill-rule:evenodd;stroke:#000000"
       id="path29"
       sodipodi:cx="88.753433"
       sodipodi:cy="56.263336"
       sodipodi:expansion="1"
       sodipodi:revolution="3"
       sodipodi:radius="19.683836"
       sodipodi:argument="-17.978653"
       sodipodi:t0="0"
       d="m 88.753433,56.263336 c 0.635709,0.754903 -0.703958,1.229365 -1.254698,1.056589 -1.492472,-0.468211 -1.570016,-2.437933 -0.85848,-3.565986 1.272771,-2.017822 4.129126,-2.022161 5.877273,-0.66037 2.565477,1.998482 2.489968,5.844078 0.462262,8.188561 -2.702613,3.124827 -7.567571,2.964582 -10.499849,0.264152 -3.689971,-3.398215 -3.442746,-9.295161 -0.06604,-12.811136 4.08964,-4.258316 11.025065,-3.922971 15.122424,0.132066 4.828598,4.778721 4.404488,12.75641 -0.330176,17.433711 -5.466358,5.40013 -14.488718,4.886872 -19.744998,-0.528285 -5.97252,-6.153044 -5.369858,-16.221702 0.726394,-22.056285 6.839073,-6.545521 17.95518,-5.853283 24.367578,0.924503 7.11897,7.524626 6.33703,19.689029 -1.12262,26.678861"
       transform="matrix(0.45924571,0,0,0.49659216,163.77978,15.491973)" />
    <path
       sodipodi:type="spiral"
       style="fill:none;fill-rule:evenodd;stroke:#000000"
       id="path30"
       sodipodi:cx="88.753433"
       sodipodi:cy="56.263336"
       sodipodi:expansion="1"
       sodipodi:revolution="3"
       sodipodi:radius="19.683836"
       sodipodi:argument="-17.978653"
       sodipodi:t0="0"
       d="m 88.753433,56.263336 c 0.635709,0.754903 -0.703958,1.229365 -1.254698,1.056589 -1.492472,-0.468211 -1.570016,-2.437933 -0.85848,-3.565986 1.272771,-2.017822 4.129126,-2.022161 5.877273,-0.66037 2.565477,1.998482 2.489968,5.844078 0.462262,8.188561 -2.702613,3.124827 -7.567571,2.964582 -10.499849,0.264152 -3.689971,-3.398215 -3.442746,-9.295161 -0.06604,-12.811136 4.08964,-4.258316 11.025065,-3.922971 15.122424,0.132066 4.828598,4.778721 4.404488,12.75641 -0.330176,17.433711 -5.466358,5.40013 -14.488718,4.886872 -19.744998,-0.528285 -5.97252,-6.153044 -5.369858,-16.221702 0.726394,-22.056285 6.839073,-6.545521 17.95518,-5.853283 24.367578,0.924503 7.11897,7.524626 6.33703,19.689029 -1.12262,26.678861"
       transform="matrix(0.55052587,0,0,0.49529596,370.28108,10.016399)" />
    <path
       sodipodi:type="spiral"
       style="fill:none;fill-rule:evenodd;stroke:#000000"
       id="path31"
       sodipodi:cx="88.753433"
       sodipodi:cy="56.263336"
       sodipodi:expansion="1"
       sodipodi:revolution="3"
       sodipodi:radius="19.683836"
       sodipodi:argument="-17.978653"
       sodipodi:t0="0"
       d="m 88.753433,56.263336 c 0.635709,0.754903 -0.703958,1.229365 -1.254698,1.056589 -1.492472,-0.468211 -1.570016,-2.437933 -0.85848,-3.565986 1.272771,-2.017822 4.129126,-2.022161 5.877273,-0.66037 2.565477,1.998482 2.489968,5.844078 0.462262,8.188561 -2.702613,3.124827 -7.567571,2.964582 -10.499849,0.264152 -3.689971,-3.398215 -3.442746,-9.295161 -0.06604,-12.811136 4.08964,-4.258316 11.025065,-3.922971 15.122424,0.132066 4.828598,4.778721 4.404488,12.75641 -0.330176,17.433711 -5.466358,5.40013 -14.488718,4.886872 -19.744998,-0.528285 -5.97252,-6.153044 -5.369858,-16.221702 0.726394,-22.056285 6.839073,-6.545521 17.95518,-5.853283 24.367578,0.924503 7.11897,7.524626 6.33703,19.689029 -1.12262,26.678861"
       transform="matrix(1.0941921,0,0,0.75609386,216.53984,-15.863155)" />
    <path
       sodipodi:type="spiral"
       style="fill:none;fill-rule:evenodd;stroke:#000000"
       id="path32"
       sodipodi:cx="88.753433"
       sodipodi:cy="56.263336"
       sodipodi:expansion="1"
       sodipodi:revolution="3"
       sodipodi:radius="19.683836"
       sodipodi:argument="-17.978653"
       sodipodi:t0="0"
       d="m 88.753433,56.263336 c 0.635709,0.754903 -0.703958,1.229365 -1.254698,1.056589 -1.492472,-0.468211 -1.570016,-2.437933 -0.85848,-3.565986 1.272771,-2.017822 4.129126,-2.022161 5.877273,-0.66037 2.565477,1.998482 2.489968,5.844078 0.462262,8.188561 -2.702613,3.124827 -7.567571,2.964582 -10.499849,0.264152 -3.689971,-3.398215 -3.442746,-9.295161 -0.06604,-12.811136 4.08964,-4.258316 11.025065,-3.922971 15.122424,0.132066 4.828598,4.778721 4.404488,12.75641 -0.330176,17.433711 -5.466358,5.40013 -14.488718,4.886872 -19.744998,-0.528285 -5.97252,-6.153044 -5.369858,-16.221702 0.726394,-22.056285 6.839073,-6.545521 17.95518,-5.853283 24.367578,0.924503 7.11897,7.524626 6.33703,19.689029 -1.12262,26.678861"
       transform="matrix(1.136495,0,0,0.97453904,385.46853,10.517848)" />
    <path
       sodipodi:type="spiral"
       style="fill:none;fill-rule:evenodd;stroke:#000000"
       id="path33"
       sodipodi:cx="88.753433"
       sodipodi:cy="56.263336"
       sodipodi:expansion="1"
       sodipodi:revolution="3"
       sodipodi:radius="19.683836"
       sodipodi:argument="-17.978653"
       sodipodi:t0="0"
       d="m 88.753433,56.263336 c 0.635709,0.754903 -0.703958,1.229365 -1.254698,1.056589 -1.492472,-0.468211 -1.570016,-2.437933 -0.85848,-3.565986 1.272771,-2.017822 4.129126,-2.022161 5.877273,-0.66037 2.565477,1.998482 2.489968,5.844078 0.462262,8.188561 -2.702613,3.124827 -7.567571,2.964582 -10.499849,0.264152 -3.689971,-3.398215 -3.442746,-9.295161 -0.06604,-12.811136 4.08964,-4.258316 11.025065,-3.922971 15.122424,0.132066 4.828598,4.778721 4.404488,12.75641 -0.330176,17.433711 -5.466358,5.40013 -14.488718,4.886872 -19.744998,-0.528285 -5.97252,-6.153044 -5.369858,-16.221702 0.726394,-22.056285 6.839073,-6.545521 17.95518,-5.853283 24.367578,0.924503 7.11897,7.524626 6.33703,19.689029 -1.12262,26.678861"
       transform="matrix(0.64593661,0,0,0.27619068,173.05639,2.6904095)" />
    <path
       sodipodi:type="spiral"
       style="fill:none;fill-rule:evenodd;stroke:#000000"
       id="path34"
       sodipodi:cx="88.753433"
       sodipodi:cy="56.263336"
       sodipodi:expansion="1"
       sodipodi:revolution="3"
       sodipodi:radius="19.683836"
       sodipodi:argument="-17.978653"
       sodipodi:t0="0"
       d="m 88.753433,56.263336 c 0.635709,0.754903 -0.703958,1.229365 -1.254698,1.056589 -1.492472,-0.468211 -1.570016,-2.437933 -0.85848,-3.565986 1.272771,-2.017822 4.129126,-2.022161 5.877273,-0.66037 2.565477,1.998482 2.489968,5.844078 0.462262,8.188561 -2.702613,3.124827 -7.567571,2.964582 -10.499849,0.264152 -3.689971,-3.398215 -3.442746,-9.295161 -0.06604,-12.811136 4.08964,-4.258316 11.025065,-3.922971 15.122424,0.132066 4.828598,4.778721 4.404488,12.75641 -0.330176,17.433711 -5.466358,5.40013 -14.488718,4.886872 -19.744998,-0.528285 -5.97252,-6.153044 -5.369858,-16.221702 0.726394,-22.056285 6.839073,-6.545521 17.95518,-5.853283 24.367578,0.924503 7.11897,7.524626 6.33703,19.689029 -1.12262,26.678861"
       transform="matrix(-0.64593661,0,0,0.27619068,441.17794,2.6904095)" />
  </g>
</svg>
