<?xml version="1.0" encoding="UTF-8" standalone="no"?>
<!-- Created with Inkscape (http://www.inkscape.org/) -->

<svg
   width="158.93547mm"
   height="66.145836mm"
   viewBox="0 0 158.93547 66.145836"
   version="1.1"
   id="svg1"
   xml:space="preserve"
   xmlns:inkscape="http://www.inkscape.org/namespaces/inkscape"
   xmlns:sodipodi="http://sodipodi.sourceforge.net/DTD/sodipodi-0.dtd"
   xmlns="http://www.w3.org/2000/svg"
   xmlns:svg="http://www.w3.org/2000/svg"><sodipodi:namedview
     id="namedview1"
     pagecolor="#ffffff"
     bordercolor="#000000"
     borderopacity="0.25"
     inkscape:showpageshadow="2"
     inkscape:pageopacity="0.0"
     inkscape:pagecheckerboard="0"
     inkscape:deskcolor="#d1d1d1"
     inkscape:document-units="mm" /><defs
     id="defs1" /><g
     inkscape:label="Capa 1"
     inkscape:groupmode="layer"
     id="layer1"><rect
       style="fill:#b5bc45;stroke:#000000;stroke-width:0.237436"
       id="rect1"
       width="157.85255"
       height="66.529404"
       x="1.0003967"
       y="1.2396338"
       ry="0.3870191" /><path
       style="fill:#9a4d1c;fill-opacity:1;stroke:#000000;stroke-width:0.17;stroke-dasharray:none;stroke-opacity:1"
       d="m 22.498164,53.139834 c 0.690128,-0.27605 17.805296,-0.414075 17.805296,-0.414075 l 0.27605,1.380254 -1.380254,0.414078 v 2.346434 l -0.414078,1.104204 -14.492682,0.138025 -0.552102,-1.656305 -0.138026,-1.932358 -1.656306,-0.27605 -0.138026,-1.242232 z"
       id="path1" /><path
       style="fill:#cd6725;fill-opacity:1;stroke:none;stroke-width:0.237269"
       d="M 22.733619,53.341564 C 23.383151,53.115061 39.491545,53.00181 39.491545,53.00181 l 0.259812,1.132516 -1.299063,0.339756 v 1.925279 l -0.38972,0.906014 -13.640172,0.113251 -0.519625,-1.359019 -0.129907,-1.585525 -1.558876,-0.226502 -0.129907,-1.019268 z"
       id="path2" /><path
       style="fill:#9d9aed;fill-opacity:1;stroke:none;stroke-width:0.290657"
       d="m 28.571289,52.863783 -2.760512,-2.07941 0.690128,-1.59955 3.588665,0.159954 3.450637,1.439596 c 0,0 0.138028,-3.838919 -0.414076,-3.838919 -0.5521,0 -5.659047,-0.639818 -6.073123,-2.07941 -0.414077,-1.439596 -0.690128,-3.998873 -0.690128,-3.998873 l 2.208409,-0.95973 1.932357,0.799776 0.552102,2.879189 2.484459,1.11968 -0.138025,-7.997739 2.622486,-0.95973 1.932358,0.95973 0.27605,9.277381 4.002741,-1.759504 0.276051,-2.399324 c 0,0 1.656307,-2.239367 1.794333,0 0.138025,2.239368 0.414075,3.359052 0.414075,3.359052 l -3.864713,1.279639 -2.208411,1.119684 -0.414076,3.359052 1.518283,-2.879188 2.898534,-0.959727 0.138028,1.599547 -4.278794,2.879186 1.380257,0.95973 2.898537,-2.559278 0.966179,0.479864 -1.104207,2.079414 z"
       id="path4" /><path
       style="fill:#2c25cd;fill-opacity:1;stroke:#000000;stroke-width:0.17;stroke-dasharray:none;stroke-opacity:1"
       d="m 23.87842,53.139834 -2.760512,-1.79433 0.690128,-1.380257 3.588665,0.138025 3.450637,1.242232 c 0,0 0.138028,-3.312615 -0.414076,-3.312615 -0.5521,0 -5.659047,-0.552101 -6.073123,-1.79433 -0.414077,-1.242232 -0.690128,-3.45064 -0.690128,-3.45064 l 2.208409,-0.828154 1.932357,0.690129 0.552102,2.484461 2.484459,0.966176 -0.138025,-6.901275 2.622486,-0.828154 1.932358,0.828154 0.27605,8.005482 4.002741,-1.518282 0.276051,-2.070384 c 0,0 1.656307,-1.932357 1.794333,0 0.138025,1.932358 0.414075,2.898537 0.414075,2.898537 l -3.864713,1.104204 -2.208411,0.966179 -0.414076,2.898537 1.518283,-2.484461 2.898534,-0.828151 0.138028,1.380254 -4.278794,2.484459 1.380257,0.828154 2.898537,-2.208409 0.966179,0.414076 -1.104207,1.794333 z"
       id="path3" /><path
       style="fill:#6582e0;fill-opacity:1;stroke:#000000;stroke-width:0.166233;stroke-dasharray:none;stroke-opacity:1"
       d="m 42.787919,27.743134 c 2.898537,1.055809 3.036562,1.979642 3.036562,1.979642 l -0.690126,1.055808 -1.656308,0.659882 c 0,0 -16.425039,3.167426 -17.66727,2.111618 -1.24223,-1.055809 -2.760511,-2.7715 -2.760511,-2.7715 z"
       id="path5" /><path
       style="fill:#0f1d4a;fill-opacity:1;stroke:#000000;stroke-width:0.179276;stroke-dasharray:none;stroke-opacity:1"
       d="m 42.113264,27.743134 c 0,0 2.288966,-1.199003 3.530481,-1.104204 1.688604,0.128938 3.864121,0.779012 4.451476,2.208408 0.303033,0.737464 -0.311184,1.645003 -0.920992,2.208411 -1.2326,1.138812 -4.911976,1.79433 -4.911976,1.79433 L 41.959766,31.8839 c 0,0 3.605665,-1.032296 3.53048,-2.346434 -0.06717,-1.174143 -3.376982,-1.794332 -3.376982,-1.794332 z"
       id="path6"
       sodipodi:nodetypes="csssccsc" /><path
       style="fill:#0f1d4a;fill-opacity:1;stroke:none;stroke-width:0.177559;stroke-dasharray:none;stroke-opacity:1"
       d="m 23.778037,30.779695 -1.656306,0.414078 0.903439,1.380255 -7.076946,0.828153 -0.90344,0.690129 3.914906,-0.276053 4.667773,-0.828151 -2.559746,1.104204 -1.656306,0.828154 1.204586,0.690126 3.764333,-2.208409 0.752867,0.828154 1.505733,-0.138025 z"
       id="path7" /><path
       style="fill:#6582e0;fill-opacity:1;stroke:#000000;stroke-width:0.189856;stroke-dasharray:none;stroke-opacity:1"
       d="m 60.325135,27.888682 13.140729,0.274846 1.383235,3.16074 H 61.016755 Z"
       id="path19" /><path
       style="fill:#0f1d4a;fill-opacity:1;stroke:none;stroke-width:0.202653;stroke-dasharray:none;stroke-opacity:1"
       d="m 55.48627,27.191032 -0.552103,-2.353698 0.828154,-1.372991 -5.521021,0.196141 -0.276053,3.334408 z"
       id="path15" /><path
       style="fill:#6582e0;fill-opacity:1;stroke:#000000;stroke-width:0.175258;stroke-dasharray:none;stroke-opacity:1"
       d="m 46.118722,26.638929 c -0.06934,-0.596319 1.026879,-0.966178 1.613668,-0.966178 0.586786,0 2.200454,0.138026 2.200454,0.138026 0,0 1.320273,0.690127 1.907062,0.690127 0.586787,0 4.694303,-0.552102 4.694303,-0.552102 l 1.760364,0.414076 c 0,0 2.640545,0.138026 2.640545,1.24223 0,1.104204 2.00045,5.450306 0.880183,7.867457 -0.195458,0.421732 -0.58679,0.828153 -1.173577,0.828153 -0.586789,0 -13.936214,-0.138025 -13.936214,-0.138025 0,0 -2.136669,-0.14575 -2.787243,-0.828154 -0.49947,-0.523907 -0.44009,-2.070383 -0.44009,-2.070383 0,0 3.484393,-1.2143 4.987698,-2.208408 0.565776,-0.374138 1.293504,-0.750401 1.466969,-1.380257 0.178593,-0.648476 -0.101397,-1.442276 -0.586789,-1.932355 -0.780406,-0.787933 -3.102834,-0.03356 -3.227333,-1.104207 z"
       id="path8"
       sodipodi:nodetypes="sscsccssscscssss" /><path
       style="fill:#0f1d4a;fill-opacity:1;stroke:#000000;stroke-width:0.18833;stroke-dasharray:none;stroke-opacity:1"
       d="m 48.170917,35.886641 0.552101,3.387901 9.247711,0.33879 v -2.202136 l 0.552103,-1.524555 h -9.661789 z"
       id="path9" /><path
       style="fill:#182f77;fill-opacity:1;stroke:#000000;stroke-width:0.140373;stroke-dasharray:none;stroke-opacity:1"
       d="m 48.170917,37.542948 0.552101,1.882167 9.247711,0.188217 v -1.223409 l 0.552103,-0.846975 h -9.661789 z"
       id="path10" /><path
       style="fill:#6582e0;fill-opacity:1;stroke:#000000;stroke-width:0.17;stroke-dasharray:none;stroke-opacity:1"
       d="m 48.308942,39.199256 -2.346436,1.51828 0.828154,7.867456 1.104204,0.966179 h 10.904019 l 0.966179,-8.971661 -1.518283,-0.966178 z"
       id="path11" /><path
       style="fill:#0f1d4a;fill-opacity:1;stroke:none;stroke-width:0.135225;stroke-dasharray:none;stroke-opacity:1"
       d="m 46.928686,49.413145 0.640438,1.505734 10.727345,0.150574 v -0.978728 l 0.640439,-0.67758 H 47.729233 Z"
       id="path12" /><path
       style="fill:#6582e0;fill-opacity:1;stroke:#000000;stroke-width:0.175691;stroke-dasharray:none;stroke-opacity:1"
       d="m 47.480788,50.517349 0.141512,6.182968 c 0,0 10.330435,1.581691 10.754973,0 0.424539,-1.581688 0.283027,-5.895386 0.283027,-5.895386 z"
       id="path14" /><path
       style="fill:#0f1d4a;fill-opacity:1;stroke:none;stroke-width:0.119551;stroke-dasharray:none;stroke-opacity:1"
       d="m 47.066712,57.142575 0.750858,1.003823 12.576888,0.100383 v -0.652486 l 0.750859,-0.45172 H 48.005284 Z"
       id="path13" /><path
       style="display:inline;fill:#6582e0;fill-opacity:1;stroke:#000000;stroke-width:0.174443;stroke-dasharray:none;stroke-opacity:1"
       d="m 48.354951,15.603582 -5.152954,1.261294 1.431375,6.30647 3.292164,1.12115 c 0,0 3.292165,-0.700719 5.439229,-0.700719 2.147064,0 9.160807,1.541582 9.160807,0 0,-1.541581 -0.858826,-7.42762 -0.858826,-7.42762 0,0 -0.143137,-0.840863 -3.005889,-0.981007 -2.862751,-0.140144 -10.305906,0.420432 -10.305906,0.420432 z"
       id="path17" /><path
       style="display:inline;fill:#2c54ce;fill-opacity:1;stroke:#000000;stroke-width:0.1;stroke-dasharray:none;stroke-opacity:1"
       d="m 50.274789,15.929091 c -1.777947,0.241944 -5.371059,0.452301 -5.371059,0.452301 l -1.983519,1.802193 0.633628,1.585347 0.83186,4.06573 1.697015,0.186962 c 0,0 6.347025,-0.445813 6.527502,-1.166861 0.180474,-0.721047 -0.37137,-5.799966 -0.37137,-5.799966 z"
       id="path16" /><ellipse
       style="fill:#1a1a1a;fill-opacity:1;stroke:#000000;stroke-width:0.151404;stroke-dasharray:none;stroke-opacity:1"
       id="path18"
       cx="45.134354"
       cy="19.875679"
       rx="2.7698088"
       ry="1.5275791" /><ellipse
       style="fill:#ff0000;fill-opacity:1;stroke:none;stroke-width:0.112833;stroke-dasharray:none;stroke-opacity:1"
       id="ellipse18"
       cx="44.789288"
       cy="19.944693"
       rx="1.7539024"
       ry="1.3398261" /><path
       style="fill:#6582e0;fill-opacity:1;stroke:#000000;stroke-width:0.1;stroke-dasharray:none;stroke-opacity:1"
       d="m 52.863784,15.320836 v -1.518281 l -1.794333,-0.552103 0.828154,-0.690127 1.656307,0.552102 0.966179,0.552102 0.552101,1.380255 z"
       id="path20" /><ellipse
       style="fill:#000080;fill-opacity:1;stroke:#000000;stroke-width:0.1;stroke-dasharray:none;stroke-opacity:1"
       id="path21"
       cx="50.517349"
       cy="12.422298"
       rx="1.1042043"
       ry="0.96617883" /><path
       style="fill:#000080;fill-opacity:1;stroke:#000000;stroke-width:0.1;stroke-dasharray:none;stroke-opacity:1"
       id="path22"
       d="m 56.796931,19.338112 c 0.40462,0.01289 0.803865,-0.02814 1.205193,-0.07243 0.352531,-0.05065 0.710724,-0.03716 1.062731,-0.08627 0.222626,-0.03511 0.112305,-0.01807 0.330949,-0.05116 0,0 -0.798767,-0.562015 -0.798767,-0.562015 v 0 c -0.217138,0.03357 -0.107746,0.01707 -0.328181,0.04946 -0.351726,0.03647 -0.706869,0.03764 -1.057537,0.08867 -0.403923,0.04502 -0.807408,0.0778 -1.214302,0.05258 z" /><path
       style="fill:#000080;fill-opacity:1;stroke:#000000;stroke-width:0.1;stroke-dasharray:none;stroke-opacity:1"
       id="path23"
       d="m 60.784155,19.062781 c 0.298116,-0.0046 0.596302,-0.0048 0.894453,-0.0047 0.146203,-0.01431 0.290422,-0.04264 0.435012,-0.06769 0,0 -0.803238,-0.562824 -0.803238,-0.562824 v 0 c -0.139468,0.02408 -0.278903,0.0511 -0.420693,0.05733 -0.30248,4.5e-5 -0.604986,-1.86e-4 -0.907434,-0.0047 z" /><path
       style="fill:#000080;fill-opacity:1;stroke:#000000;stroke-width:0.1;stroke-dasharray:none;stroke-opacity:1"
       id="path24"
       d="m 60.094026,20.719087 c 0.176784,-0.0036 0.353618,-0.0034 0.530431,-0.0037 0,0 -0.791739,-0.575232 -0.791739,-0.575232 v 0 c -0.180197,-2.91e-4 -0.360418,-1.18e-4 -0.540591,-0.0037 z" /><path
       style="fill:#000080;fill-opacity:1;stroke:#000000;stroke-width:0.1;stroke-dasharray:none;stroke-opacity:1"
       id="path25"
       d="m 57.364553,22.097903 c 0.477911,-0.01326 0.956082,0.007 1.433099,-0.0266 0.498364,-0.05003 0.997461,-0.08587 1.497963,-0.104057 0.435562,-0.01334 0.871378,-0.01268 1.307094,-0.01164 0.219102,7.14e-4 0.108469,5.82e-4 0.331904,3.17e-4 0,0 -0.789427,-0.573613 -0.789427,-0.573613 v 0 c -0.223956,-5.03e-4 -0.113448,-6.09e-4 -0.331528,2.61e-4 -0.433287,0.0028 -0.866574,0.0082 -1.299689,0.02126 -0.500046,0.01943 -0.998206,0.05926 -1.496224,0.107917 -0.483335,0.02366 -0.967375,0.01246 -1.451126,0.0064 z" /><path
       style="fill:#f0d172;fill-opacity:1;stroke:#000000;stroke-width:0.101793;stroke-dasharray:none;stroke-opacity:1"
       d="m 81.159476,27.515158 c 0,0 0.0632,0.880917 0.442386,0.948678 0.379191,0.06776 1.200765,0.542103 1.200765,0.542103 l -1.516756,0.203291 v 0.5421 l 0.821577,0.406577 -0.126395,0.338813 -3.539098,0.135527 -0.189594,1.897355 -2.907114,-0.948678 0.37919,-0.948677 0.568782,-0.06776 -0.189594,-1.965119 1.453557,0.135523 1.453558,0.06776 0.63198,-1.016441 z"
       id="path27" /><path
       style="fill:#000046;fill-opacity:1;stroke:none;stroke-width:0.1;stroke-dasharray:none;stroke-opacity:1"
       d="m 76.190101,28.709313 c 0,0.690128 0.138025,2.208408 0.138025,2.208408 l -3.588663,-0.552101 -1.794332,-2.622486 0.690128,-0.966179 c 0,0 3.036562,-0.138025 3.588663,-0.138025 0.552103,0 1.104204,-0.966179 1.104204,-0.966179 l 3.726691,0.276052 h 2.622486 l 1.380255,0.552101 -1.932358,1.518283 -1.794333,-0.690129 -0.828154,0.414076 -0.690126,1.242232 z"
       id="path26" /><path
       style="fill:#f0d172;fill-opacity:1;stroke:#000000;stroke-width:0.1;stroke-dasharray:none;stroke-opacity:1"
       d="m 86.628862,38.826428 -0.417489,0.730607 h 6.262328 l -1.461209,-0.93935 z"
       id="path37" /><path
       style="display:inline;fill:#15fbfb;fill-opacity:1;stroke:#000000;stroke-width:0.1;stroke-dasharray:none;stroke-opacity:1"
       d="m 74.895233,31.308138 -1.992919,1.542904 -3.600116,1.350044 -2.957235,8.87171 c 0,0 2.892949,0.835739 3.1501,0.835739 0.257151,0 5.078733,0.192865 5.078733,0.192865 0,0 0.900028,-0.06429 1.671481,-0.128577 0.771454,-0.06429 3.214386,-0.642876 3.214386,-0.642876 l 0.771454,0.06429 0.450013,-2.442935 10.543194,-0.385728 0.128574,-0.835739 -4.371567,-0.32144 0.257151,-0.771453 c 0,0 -4.693005,1.092893 -5.464458,0 -0.771454,-1.092891 -2.764375,-5.850186 -2.764375,-5.850186 z"
       id="path28" /><path
       style="fill:#f0d172;fill-opacity:1;stroke:none;stroke-width:0.117954;stroke-dasharray:none;stroke-opacity:1"
       d="m 87.985699,54.396028 1.252466,2.904266 2.50493,-0.871279 c 0,0 -0.208743,-2.468627 -1.356836,-2.468627 -1.148094,0 -2.40056,0.43564 -2.40056,0.43564 z"
       id="path33" /><path
       style="fill:#f0d172;fill-opacity:1;stroke:none;stroke-width:0.117954;stroke-dasharray:none;stroke-opacity:1"
       d="m 92.891189,53.97854 1.252466,2.904266 2.50493,-0.871279 c 0,0 -0.208743,-2.468627 -1.356836,-2.468627 -1.148094,0 -2.40056,0.43564 -2.40056,0.43564 z"
       id="path34" /><path
       style="fill:#000056;fill-opacity:1;stroke:#000000;stroke-width:0.102582;stroke-dasharray:none;stroke-opacity:1"
       d="m 66.320758,42.406479 -0.642876,1.826567 c 0,0 1.671481,1.285363 2.121495,1.623617 0.450014,0.338255 1.41433,0.87946 1.671481,0.87946 0.257151,0 2.828661,0.270604 3.857265,0.270604 1.028605,0 4.564431,0 4.950159,0 0.385725,0 3.535825,0.202951 4.307279,0.338252 0.771453,0.135302 1.607193,0.338254 1.607193,0.338254 l 1.41433,3.85609 c 0,0 1.334894,3.464785 1.752383,3.464785 0.417489,0 3.653023,-0.329495 3.653023,-0.329495 l 0.313118,-2.416303 1.461209,2.19664 3.757396,-0.658994 -4.38363,-8.78655 -3.861769,-1.317984 -4.905488,-0.65899 -3.966141,-0.329498 c 0,0 -3.548653,0.658993 -4.174885,0.878655 -0.626234,0.219666 -1.148093,0.439329 -3.966141,0.109833 -2.818048,-0.329495 -4.965401,-1.284943 -4.965401,-1.284943 z"
       id="path30" /><path
       style="fill:#73e2e2;fill-opacity:1;stroke:#000000;stroke-width:0.1;stroke-dasharray:none;stroke-opacity:0.347561"
       d="m 72.452298,33.043905 c 0.90003,0 3.1501,0.642879 3.1501,0.642879 l 0.90003,0.707165 1.478619,2.25007 -1.350044,0.257151 c 0,0 -0.128575,1.285756 0.835742,1.607195 0.964316,0.321437 1.41433,0.707165 2.185783,0.707165 0.771451,0 1.414331,0.128575 3.021524,0.128575 1.607192,0 3.214388,0.321439 4.178704,0.321439 0.964317,0 3.921554,-0.321439 3.921554,0 0,0.32144 0,0.771454 0,0.771454 l -8.293121,0.321437 -7.393093,-0.5143 -0.321437,2.764372 v 0.964316 h -3.792977 l -4.114416,-0.578588 c 0,0 -1.221468,-0.06429 -1.028605,-0.578591 0.192863,-0.514302 1.350042,-2.507223 1.671481,-3.535825 0.32144,-1.028605 0.707165,-2.05721 0.964316,-2.828663 0.257152,-0.771454 1.157179,-2.185784 1.157179,-2.185784 l 3.214389,-1.221467 z"
       id="path29" /><path
       style="fill:#aa0000;fill-opacity:1;stroke:none;stroke-width:0.1;stroke-dasharray:none;stroke-opacity:1"
       d="m 69.720578,47.28057 -5.636096,0.521862 0.521862,1.461209 c 0,0 3.653025,-0.313116 4.38363,-0.313116 0.730604,0 3.757395,0 5.009861,0 1.252466,0 3.861769,-0.104373 4.696746,0.104373 0.834977,0.208743 4.174884,0.208743 4.174884,0.208743 l 0.626232,-1.356837 -6.262328,-0.104372 c 0,0 -2.713675,-0.417489 -3.653022,-0.417489 -0.939351,0 -3.861769,-0.104373 -3.861769,-0.104373 z"
       id="path31" /><path
       style="fill:#0c0c2a;fill-opacity:1;stroke:none;stroke-width:0.103416;stroke-dasharray:none;stroke-opacity:1"
       d="m 65.128205,49.064178 3.44428,0.446496 c 0,0 6.262328,-0.223246 6.157955,0.446495 -0.104373,0.669744 0.208743,7.14392 -0.313116,7.14392 -0.521862,0 -4.174887,-0.446495 -4.174887,-0.446495 l -1.565582,1.004616 c 0,0 0.104373,1.004611 1.043723,0.89299 0.939348,-0.111625 5.531723,-0.446496 5.531723,-0.446496 0,0 3.026791,-0.334873 3.653023,-0.223248 0.626234,0.111623 4.488003,0.223248 4.488003,0.223248 0,0 0.834977,-0.446494 -0.730605,-0.89299 -1.565582,-0.446496 -5.114234,1.116236 -5.218607,-0.111625 -0.104373,-1.227861 -0.626232,-7.255544 -0.208746,-7.255544 0.417489,0 2.922421,0 2.922421,0 0,0 4.279257,-0.781367 3.026791,-0.892988 -1.252466,-0.111625 -18.056376,0.111621 -18.056376,0.111621 z"
       id="path32" /><path
       style="fill:#008080;fill-opacity:1;stroke:#000000;stroke-width:0.1;stroke-dasharray:none;stroke-opacity:1"
       d="m 89.238165,56.778434 v 1.565582 L 98.214168,58.0309 c 0,0 1.356836,-1.04372 -0.208745,-1.04372 -1.565582,0 -4.174885,-0.104373 -4.174885,-0.104373 l -2.296186,-0.313116 z"
       id="path35" /><path
       style="fill:#008080;fill-opacity:1;stroke:#000000;stroke-width:0.0920075;stroke-dasharray:none;stroke-opacity:1"
       d="m 94.143655,56.256573 v 1.565582 l 7.598525,-0.313116 c 0,0 1.14861,-1.04372 -0.17671,-1.04372 -1.32532,0 -3.534197,-0.104373 -3.534197,-0.104373 L 96.087465,56.04783 Z"
       id="path36" /><rect
       style="fill:#333333;fill-opacity:0.612805;stroke:#000000;stroke-width:0.0284574;stroke-dasharray:none;stroke-opacity:1"
       id="rect53"
       width="5.519567"
       height="15.615952"
       x="56.697487"
       y="-136.24522"
       ry="4.009376"
       transform="matrix(0.0635542,0.99797839,-0.99977652,0.02114026,0,0)" /><rect
       style="fill:#333333;fill-opacity:1;stroke:#000000;stroke-width:0.0374502;stroke-dasharray:none;stroke-opacity:1"
       id="rect52"
       width="9.5604134"
       height="15.613995"
       x="127.51147"
       y="39.212643"
       ry="4.0088735" /><rect
       style="fill:#333333;fill-opacity:1;stroke:#000000;stroke-width:0.1;stroke-dasharray:none;stroke-opacity:1"
       id="rect38"
       width="43.21006"
       height="24.631821"
       x="109.59073"
       y="19.100098"
       ry="6.3241882" /><rect
       style="fill:#666666;fill-opacity:1;stroke:#000000;stroke-width:0.0924478;stroke-dasharray:none;stroke-opacity:1"
       id="rect39"
       width="40.712681"
       height="22.343185"
       x="111.04816"
       y="19.826925"
       ry="5.7365842" /><rect
       style="fill:#ffffff;fill-opacity:1;stroke:#000000;stroke-width:0.0810274;stroke-dasharray:none;stroke-opacity:1"
       id="rect40"
       width="36.549217"
       height="19.11907"
       x="113.33862"
       y="21.491169"
       ry="0" /><ellipse
       style="fill:#ff0000;fill-opacity:1;stroke:#000000;stroke-width:0.1;stroke-dasharray:none;stroke-opacity:1"
       id="path40"
       cx="131.92636"
       cy="41.279171"
       rx="1.5655818"
       ry="0.57404667" /><ellipse
       style="fill:#00ff00;fill-opacity:1;stroke:none;stroke-width:0.146569;stroke-dasharray:none;stroke-opacity:1"
       id="ellipse40"
       cx="140.95453"
       cy="41.279171"
       rx="5.861124"
       ry="0.3294014" /><rect
       style="fill:#ff00ff;fill-opacity:1;stroke:none;stroke-width:0.1;stroke-dasharray:none;stroke-opacity:1"
       id="rect41"
       width="1.7743261"
       height="8.5585146"
       x="127.85585"
       y="31.8335"
       ry="0.3870191" /><rect
       style="fill:#800080;fill-opacity:1;stroke:none;stroke-width:0.107067;stroke-dasharray:none;stroke-opacity:1"
       id="rect42"
       width="1.7743261"
       height="9.8109798"
       x="130.46515"
       y="30.581034"
       ry="0.44365603" /><rect
       style="fill:#ff5555;fill-opacity:1;stroke:none;stroke-width:0.11153;stroke-dasharray:none;stroke-opacity:1"
       id="rect43"
       width="1.7743261"
       height="10.645957"
       x="132.86571"
       y="29.641685"
       ry="0.48141399" /><rect
       style="fill:#d35f5f;fill-opacity:1;stroke:none;stroke-width:0.117908;stroke-dasharray:none;stroke-opacity:1"
       id="rect44"
       width="1.7743261"
       height="11.898422"
       x="135.68376"
       y="28.284847"
       ry="0.53805095" /><rect
       style="fill:#aa4400;fill-opacity:1;stroke:none;stroke-width:0.121975;stroke-dasharray:none;stroke-opacity:1"
       id="rect45"
       width="1.7743261"
       height="12.733399"
       x="138.18869"
       y="27.449871"
       ry="0.57580888" /><rect
       style="fill:#000080;fill-opacity:1;stroke:none;stroke-width:0.126394;stroke-dasharray:none;stroke-opacity:1"
       id="rect46"
       width="1.7743261"
       height="13.672749"
       x="140.69362"
       y="26.406151"
       ry="0.61828661" /><rect
       style="fill:#ac9393;fill-opacity:1;stroke:none;stroke-width:0.129727;stroke-dasharray:none;stroke-opacity:1"
       id="rect47"
       width="1.7743261"
       height="14.403354"
       x="143.30292"
       y="25.675547"
       ry="0.65132481" /><rect
       style="fill:#ff8080;fill-opacity:1;stroke:none;stroke-width:0.134798;stroke-dasharray:none;stroke-opacity:1"
       id="rect48"
       width="1.7743261"
       height="15.551447"
       x="145.49474"
       y="24.631824"
       ry="0.703242" /><rect
       style="fill:#ff8080;fill-opacity:1;stroke:#000000;stroke-width:0.1;stroke-dasharray:none;stroke-opacity:1"
       id="rect49"
       width="7.827909"
       height="5.6360946"
       x="115.53994"
       y="22.753124" /><rect
       style="fill:#1f3e9c;fill-opacity:0.484756;stroke:#000000;stroke-width:0.0678273;stroke-dasharray:none;stroke-opacity:1"
       id="rect50"
       width="3.5808246"
       height="5.6682673"
       x="122.41241"
       y="29.521225" /><path
       style="fill:#1f3e9c;fill-opacity:0.484756;stroke:#000000;stroke-width:0.1;stroke-dasharray:none;stroke-opacity:1"
       id="path50"
       d="m 116.40831,32.229176 c 0.29674,-0.0054 0.5936,-0.0084 0.89039,-0.0093 0.32995,2.65e-4 0.65989,0.0031 0.98984,0.0048 0.2732,-0.0013 0.5464,-7.94e-4 0.81959,7.1e-5 0.12602,5.3e-4 0.25204,-8.7e-5 0.37806,-1.37e-4 0,0 -0.78932,-0.573474 -0.78932,-0.573474 v 0 c -0.12614,-5e-5 -0.25229,-7.94e-4 -0.37843,-1.38e-4 -0.27314,7.94e-4 -0.54627,0.0016 -0.8194,7.2e-5 -0.32557,0.0016 -0.65113,0.0045 -0.97671,0.0048 -0.3053,-0.0011 -0.61066,-0.004 -0.91591,-0.0093 z" /><path
       style="fill:#1f3e9c;fill-opacity:0.484756;stroke:#000000;stroke-width:0.1;stroke-dasharray:none;stroke-opacity:1"
       id="path51"
       d="m 115.94393,34.104275 c 0.4438,0.07194 0.88958,0.127751 1.3373,0.168082 0.41292,0.03469 0.82787,0.03268 1.24194,0.03715 0.2006,0.0021 0.40122,0.003 0.60183,0.0037 0,0 -0.78958,-0.573444 -0.78958,-0.573444 v 0 c -0.19703,0.0013 -0.39407,0.0029 -0.59111,0.0031 -0.41122,-7.94e-4 -0.82274,-0.006 -1.23278,-0.04025 -0.45567,-0.04026 -0.90714,-0.107948 -1.35959,-0.173744 z" /><path
       style="fill:#1f3e9c;fill-opacity:0.484756;stroke:#000000;stroke-width:0.106772;stroke-dasharray:none;stroke-opacity:1"
       id="path52"
       d="m 117.26965,36.17301 c 0.34009,-0.02395 0.67802,0.03579 1.01613,0.06889 0.32038,0.03575 0.64195,0.04069 0.9635,0.04241 0.19791,-0.0093 0.39498,0.01817 0.59171,0.03808 0,0 -0.76945,-0.653683 -0.76945,-0.653683 v 0 c -0.19948,-0.01895 -0.39921,-0.03987 -0.59965,-0.03468 -0.32015,-0.0066 -0.64038,-0.01801 -0.95953,-0.04941 -0.34534,-0.03529 -0.69041,-0.07937 -1.03767,-0.075 z" /></g></svg>
